<svg width="21" height="22" viewBox="0 0 21 22" fill="none" xmlns="http://www.w3.org/2000/svg">
<g clip-path="url(#clip0_7980_32578)">
<path d="M21.0009 11.74C21.0009 11.0324 20.9309 10.302 20.8143 9.61719H10.7109V13.6574H16.4976C16.2643 14.9585 15.4943 16.0998 14.3509 16.8302L17.8043 19.4552C19.8343 17.6063 21.0009 14.9128 21.0009 11.74Z" fill="#4280EF"/>
<path d="M10.7092 21.9652C13.6026 21.9652 16.0292 21.0293 17.8026 19.4315L14.3492 16.8293C13.3926 17.4684 12.1559 17.8337 10.7092 17.8337C7.90924 17.8337 5.55258 15.9847 4.68924 13.5195L1.14258 16.1902C2.96258 19.7282 6.64924 21.9652 10.7092 21.9652Z" fill="#34A353"/>
<path d="M4.69003 13.496C4.24669 12.1949 4.24669 10.7797 4.69003 9.47863L1.14336 6.78516C-0.373307 9.75255 -0.373307 13.2449 1.14336 16.1895L4.69003 13.496Z" fill="#F6B704"/>
<path d="M10.7092 5.16451C12.2259 5.14169 13.7192 5.71234 14.8159 6.73951L17.8726 3.72647C15.9359 1.94603 13.3692 0.987338 10.7092 1.01016C6.64924 1.01016 2.96258 3.24712 1.14258 6.78517L4.68924 9.47864C5.55258 6.9906 7.90925 5.16451 10.7092 5.16451Z" fill="#E54335"/>
</g>
<defs>
<clipPath id="clip0_7980_32578">
<rect width="21" height="21" fill="white" transform="translate(0 0.988281)"/>
</clipPath>
</defs>
</svg>
